<?xml version="1.0" encoding="utf-8"?>
<!-- Generator: Adobe Illustrator 23.0.1, SVG Export Plug-In . SVG Version: 6.00 Build 0)  -->
<svg version="1.1" id="Capa_1" xmlns="http://www.w3.org/2000/svg" xmlns:xlink="http://www.w3.org/1999/xlink" x="0px" y="0px"
	 viewBox="0 0 512 512" style="enable-background:new 0 0 512 512;" xml:space="preserve">
<style type="text/css">
	.st0{stroke:#000000;stroke-width:6;stroke-miterlimit:10;}
</style>
<g>
	<g>
		<g>
			<path class="st0" d="M484.6,235.2H27.4C16.7,235.2,8,244.5,8,256c0,11.5,8.7,20.8,19.4,20.8h457.3c10.7,0,19.4-9.3,19.4-20.8
				S495.3,235.2,484.6,235.2z"/>
		</g>
	</g>
	<g>
		<g>
			<path class="st0" d="M484.6,69.2H27.4C16.7,69.2,8,78.5,8,90s8.7,20.8,19.4,20.8h457.3c10.7,0,19.4-9.3,19.4-20.8
				S495.3,69.2,484.6,69.2z"/>
		</g>
	</g>
	<g>
		<g>
			<path class="st0" d="M484.6,401.3H27.4C16.7,401.3,8,410.6,8,422s8.7,20.8,19.4,20.8h457.3c10.7,0,19.4-9.3,19.4-20.8
				S495.3,401.3,484.6,401.3z"/>
		</g>
	</g>
</g>
</svg>
