<?xml version="1.0" encoding="UTF-8"?>
<svg width="97px" height="65px" viewBox="0 0 97 65" version="1.1" xmlns="http://www.w3.org/2000/svg" xmlns:xlink="http://www.w3.org/1999/xlink">
    <!-- Generator: Sketch 53.2 (72643) - https://sketchapp.com -->
    <title>Ic_laptop</title>
    <desc>Created with Sketch.</desc>
    <g id="Ic_laptop" stroke="none" stroke-width="1" fill="none" fill-rule="evenodd">
        <g id="laptop" fill="#2AA7DF" fill-rule="nonzero">
            <path d="M79.9246254,10 L17.0753746,10 C15.9292947,10 15,10.9161263 15,12.0463807 L15,42.9536193 C15,44.0838737 15.9292947,45 17.0753746,45 C18.2214545,45 19.1507492,44.0838737 19.1507492,42.9536193 L19.1507492,14.0925757 L77.8492508,14.0925757 L77.8492508,42.9534336 L77.8492508,42.9534336 C77.8492508,44.083688 78.7785455,44.9998143 79.9246254,44.9998143 C81.0707053,44.9998143 82,44.083688 82,42.9534336 L82,12.046195 C81.9998117,10.9161263 81.070517,10 79.9246254,10 Z" id="Path"></path>
            <path d="M95.1213791,50.1610538 L91.2764204,50.1610538 L91.2764204,6.31160684 C91.2764204,2.83139274 88.4456063,0 84.9661034,0 L12.034086,0 C8.55439366,0 5.72376899,2.83139274 5.72376899,6.31160684 L5.72376899,50.1610538 L1.87881031,50.1610538 C0.841173518,50.1610538 0,51.0022098 0,52.0402481 L0,55.7292827 C0,60.8412143 4.15793585,65 9.26882279,65 L87.7311772,65 C92.8420641,65 97,60.8412143 97,55.7292827 L97,52.0402481 C97.0001894,51.0022098 96.1592054,50.1610538 95.1213791,50.1610538 Z M9.89875566,6.31160684 C9.89875566,5.13410219 10.856822,4.17584003 12.034086,4.17584003 L84.9657245,4.17584003 C86.1433674,4.17584003 87.1010549,5.13391269 87.1010549,6.31160684 L87.1010549,50.1610538 L58.8345934,50.1610538 C58.7014076,50.1566955 58.5640538,50.168065 58.4276473,50.1944044 C57.5432784,50.3645685 56.9042517,51.1388337 56.9042517,52.0394902 C56.9042517,53.6257295 55.6140734,54.9159821 54.0285371,54.9159821 L42.9718417,54.9159821 C41.3859265,54.9159821 40.0961271,53.6255401 40.0961271,52.0394902 C40.0961271,50.9872399 39.2244516,50.1381253 38.1737425,50.1606748 L9.89875566,50.1606748 L9.89875566,6.31160684 Z M93.2425688,55.7292827 L93.2425688,55.7292827 C93.2425688,58.7689274 90.7700112,61.2416113 87.7313666,61.2416113 L9.26882279,61.2416113 C6.22998873,61.2416113 3.75762062,58.7689274 3.75762062,55.7292827 L3.75762062,53.9194425 L36.609425,53.9194425 C37.4216121,56.6653742 39.9665409,58.6745602 42.9716523,58.6745602 L54.0283477,58.6745602 C57.033459,58.6745602 59.5783878,56.6651847 60.3907644,53.9194425 L93.2427583,53.9194425 L93.2427583,55.7292827 L93.2425688,55.7292827 Z" id="Shape"></path>
            <path d="M51.3993217,21.6006668 C50.5982312,20.7997777 49.2999956,20.7997777 48.498719,21.6006668 L35.6006783,34.4990187 C34.7997739,35.2999078 34.7997739,36.5984908 35.6006783,37.3993798 C36.0012235,37.7999173 36.5261016,38 37.0507935,38 C37.5756716,38 38.1003635,37.7995451 38.5009087,37.3993798 L51.3993217,24.5012139 C52.2002261,23.7003249 52.2002261,22.4017419 51.3993217,21.6006668 Z" id="Path"></path>
            <path d="M58.3499384,29.5850678 C57.4829547,28.8049774 56.0779334,28.8049774 55.2109496,29.5850678 L49.6500867,34.5897561 C48.7833044,35.3698465 48.7833044,36.6347059 49.6500867,37.4149776 C50.0835786,37.8051134 50.6516303,38 51.2194804,38 C51.7877335,38 52.3553823,37.8051134 52.7888741,37.4149776 L58.349737,32.4102892 C59.2167208,31.6301989 59.2167208,30.3653394 58.3499384,29.5850678 Z" id="Path"></path>
        </g>
    </g>
</svg>