<svg id="Capa_1" enable-background="new 0 0 512 512" height="512" viewBox="0 0 512 512" width="512" xmlns="http://www.w3.org/2000/svg"><g><path d="m196 301c57.897 0 105-47.103 105-105s-47.103-105-105-105-105 47.103-105 105 47.103 105 105 105zm0-180c41.355 0 75 33.645 75 75s-33.645 75-75 75-75-33.645-75-75 33.645-75 75-75z"/><path d="m227.82 227.82c5.858-5.858 5.858-15.355 0-21.213s-15.355-5.857-21.213 0c-5.848 5.849-15.364 5.849-21.213 0s-5.849-15.365 0-21.213c5.849-5.849 15.365-5.849 21.214 0 5.858 5.857 15.355 5.857 21.213 0 5.857-5.858 5.857-15.355 0-21.213-17.545-17.544-46.094-17.545-63.64 0-17.544 17.545-17.544 46.094 0 63.64 17.545 17.544 46.092 17.545 63.639-.001z"/><path d="m467 151h-75v-105c0-8.284-6.716-15-15-15h-362c-8.284 0-15 6.716-15 15v390c0 24.813 20.187 45 45 45h362c24.813 0 45-20.187 45-45v-45h45c8.284 0 15-6.716 15-15v-180c0-24.813-20.187-45-45-45zm-422 300c-8.271 0-15-6.729-15-15v-375h332v375c0 5.257.906 10.307 2.57 15zm377-15c0 8.271-6.729 15-15 15s-15-6.729-15-15v-255h32.58c-1.665 4.695-2.58 9.742-2.58 15zm60-75h-30v-165c0-8.271 6.729-15 15-15s15 6.729 15 15z"/><path d="m316 391h-240c-8.284 0-15 6.716-15 15s6.716 15 15 15h240c8.284 0 15-6.716 15-15s-6.716-15-15-15z"/><path d="m316 331h-240c-8.284 0-15 6.716-15 15s6.716 15 15 15h240c8.284 0 15-6.716 15-15s-6.716-15-15-15z"/></g></svg>