<svg height="426pt" viewBox="-32 0 426 426.66667" width="426pt" xmlns="http://www.w3.org/2000/svg"><path d="m90.996094 426.667969c-8.832032 0-16-7.167969-16-16v-394.667969c0-8.832031 7.167968-16 16-16 8.832031 0 16 7.167969 16 16v394.667969c0 8.832031-7.167969 16-16 16zm0 0"/><path d="m90.996094 426.667969c-4.097656 0-8.195313-1.558594-11.308594-4.695313l-74.667969-74.664062c-6.25-6.253906-6.25-16.386719 0-22.636719 6.253907-6.25 16.386719-6.25 22.636719 0l63.359375 63.359375 63.359375-63.359375c6.25-6.25 16.386719-6.25 22.636719 0s6.25 16.382813 0 22.636719l-74.667969 74.664062c-3.15625 3.136719-7.253906 4.695313-11.347656 4.695313zm0 0"/><path d="m346.996094 426.667969h-74.667969c-5.632813 0-10.859375-2.964844-13.738281-7.789063-2.902344-4.839844-3.03125-10.835937-.363282-15.785156l61.953126-115.09375h-47.851563c-8.832031 0-16-7.167969-16-16s7.167969-16 16-16h74.667969c5.628906 0 10.855468 2.964844 13.738281 7.785156 2.898437 4.84375 3.027344 10.839844.363281 15.789063l-61.976562 115.09375h47.875c8.832031 0 16 7.167969 16 16s-7.167969 16-16 16zm0 0"/><path d="m346.996094 170.667969c-8.832032 0-16-7.167969-16-16v-101.335938c0-11.773437-9.558594-21.332031-21.335938-21.332031-11.773437 0-21.332031 9.558594-21.332031 21.332031v101.335938c0 8.832031-7.167969 16-16 16s-16-7.167969-16-16v-101.335938c0-29.417969 23.914063-53.332031 53.332031-53.332031 29.417969 0 53.335938 23.914062 53.335938 53.332031v101.335938c0 8.832031-7.167969 16-16 16zm0 0"/><path d="m346.996094 112h-74.667969c-8.832031 0-16-7.167969-16-16s7.167969-16 16-16h74.667969c8.832031 0 16 7.167969 16 16s-7.167969 16-16 16zm0 0"/></svg>