<?xml version="1.0" encoding="utf-8"?>
<!-- Generator: Adobe Illustrator 23.0.1, SVG Export Plug-In . SVG Version: 6.00 Build 0)  -->
<svg version="1.1" id="Capa_1" xmlns="http://www.w3.org/2000/svg" xmlns:xlink="http://www.w3.org/1999/xlink" x="0px" y="0px"
	 viewBox="0 0 426 426" style="enable-background:new 0 0 426 426;" xml:space="preserve">
<path d="M123.2,0c8.8,0,16,7.2,16,16V410c0,8.8-7.2,16-16,16s-16-7.2-16-16V16C107.2,7.2,114.4,0,123.2,0z"/>
<path d="M123.2,0c4.1,0,8.2,1.6,11.3,4.7L209,79.2c6.2,6.2,6.2,16.4,0,22.6c-6.2,6.2-16.4,6.2-22.6,0l-63.3-63.3l-63.3,63.3
	c-6.2,6.2-16.4,6.2-22.6,0s-6.2-16.4,0-22.6l74.6-74.5C115,1.6,119.1,0,123.2,0z"/>
<path d="M378.7,426h-74.6c-5.6,0-10.8-3-13.7-7.8c-2.9-4.8-3-10.8-0.4-15.8L352,287.5h-47.8c-8.8,0-16-7.2-16-16c0-8.8,7.2-16,16-16
	h74.6c5.6,0,10.8,3,13.7,7.8c2.9,4.8,3,10.8,0.4,15.8l-61.9,114.9h47.8c8.8,0,16,7.2,16,16C394.7,418.8,387.6,426,378.7,426z"/>
<path d="M378.7,170.4c-8.8,0-16-7.2-16-16V53.2c0-11.8-9.5-21.3-21.3-21.3c-11.8,0-21.3,9.5-21.3,21.3v101.2c0,8.8-7.2,16-16,16
	s-16-7.2-16-16V53.2c0-29.4,23.9-53.2,53.2-53.2s53.3,23.9,53.3,53.2v101.2C394.7,163.2,387.6,170.4,378.7,170.4z"/>
<path d="M378.7,111.8h-74.6c-8.8,0-16-7.2-16-16s7.2-16,16-16h74.6c8.8,0,16,7.2,16,16S387.6,111.8,378.7,111.8z"/>
</svg>
