<svg id="Capa_1" enable-background="new 0 0 512 512" height="512" viewBox="0 0 512 512" width="512" xmlns="http://www.w3.org/2000/svg"><g><g><path d="m296 315.982h-80v40h80zm0-80h-80v40h80zm120 0h-80v40h80zm0 80h-80v40h80zm0 80h-80v40h80zm-120 0h-80v40h80zm-120 0h-80v40h80zm276-360h-56v-35.964h-40v35.964h-200v-35.964h-40v35.964h-56c-33.084 0-60 26.916-60 60v356c0 33.084 26.916 60 60 60h392c33.084 0 60-26.916 60-60v-356c0-33.084-26.916-60-60-60zm20 416c0 11.028-8.972 20-20 20h-392c-11.028 0-20-8.972-20-20v-256h432zm0-296h-432v-60c0-11.028 8.972-20 20-20h56v40h40v-40h200v40h40v-40h56c11.028 0 20 8.972 20 20zm-296 160h-80v40h80zm0-80h-80v40h80z"/></g></g></svg>