<?xml version="1.0" encoding="UTF-8"?>
<svg width="510px" height="76px" viewBox="0 0 510 76" version="1.1" xmlns="http://www.w3.org/2000/svg" xmlns:xlink="http://www.w3.org/1999/xlink">
    <!-- Generator: Sketch 53.2 (72643) - https://sketchapp.com -->
    <title>logo_full_color</title>
    <desc>Created with Sketch.</desc>
    <g id="logo_full_color" stroke="none" stroke-width="1" fill="none" fill-rule="evenodd">
        <g>
            <polygon id="Fill-1" fill="#050013" points="46.852707 -1.42108547e-14 28.5524802 48.2513989 11.0302684 3.26824197 0.000192816635 3.26824197 28.5987561 74.8764839 46.6367524 27.1562949 63.9420454 74.8369565 94.0146919 3.26824197 82.9913648 3.26824197 64.3835955 48.2513989"></polygon>
            <path d="M141.505236,36.724242 C141.505236,44.1467183 144.000284,50.2676824 149.001947,55.0639962 C153.970832,59.8477769 159.709055,62.2415955 166.213724,62.2415955 C173.283346,62.2415955 179.240416,59.7957164 184.08397,54.9299887 C188.942949,49.9948469 191.36569,43.9828242 191.36569,36.8929565 C191.36569,29.7230699 188.972836,23.7139395 184.177486,18.8703856 C179.415879,13.9824839 173.509905,11.5394972 166.474991,11.5394972 C159.474783,11.5394972 153.566881,13.9824839 148.734896,18.8703856 C143.915444,23.6888733 141.505236,29.6459433 141.505236,36.724242 M131.25896,36.6124083 C131.25896,27.1412552 134.72966,19.0072854 141.679735,12.2066427 C148.593176,5.406 156.904537,2.00375047 166.61189,2.00375047 C176.200662,2.00375047 184.423327,5.43106616 191.27603,12.291482 C198.16344,19.1586465 201.606181,27.3890246 201.606181,37.0096106 C201.606181,46.6841853 198.1538,54.887569 191.230718,61.6265104 C184.290284,68.4069074 175.909509,71.7889112 166.086465,71.7889112 C157.397183,71.7889112 149.594858,68.7886843 142.691059,62.7641285 C135.072873,56.115811 131.25896,47.3956786 131.25896,36.6124083" id="Fill-2" fill="#00A7E8"></path>
            <polygon id="Fill-4" fill="#050013" points="266.649113 3.2686276 266.649113 61.0287788 286.434992 61.0287788 286.434992 70.5712741 256.493461 70.5712741 256.493461 3.2686276"></polygon>
            <path d="M351.691662,36.724242 C351.691662,44.1467183 354.186709,50.2676824 359.183552,55.0639962 C364.14858,59.8477769 369.89548,62.2415955 376.403042,62.2415955 C383.456274,62.2415955 389.420093,59.7957164 394.273287,54.9299887 C399.129374,49.9948469 401.555008,43.9828242 401.555008,36.8929565 C401.555008,29.7230699 399.156369,23.7139395 394.360055,18.8703856 C389.588807,13.9824839 383.696331,11.5394972 376.668164,11.5394972 C369.662172,11.5394972 363.746558,13.9824839 358.92325,18.8703856 C354.10187,23.6888733 351.691662,29.6459433 351.691662,36.724242 M341.44635,36.6124083 C341.44635,27.1412552 344.914157,19.0072854 351.857484,12.2066427 C358.776709,5.406 367.08807,2.00375047 376.79928,2.00375047 C386.387087,2.00375047 394.605896,5.43106616 401.471132,12.291482 C408.349866,19.1586465 411.792607,27.3890246 411.792607,37.0096106 C411.792607,46.6841853 408.335405,54.887569 401.419072,61.6265104 C394.476709,68.4069074 386.09497,71.7889112 376.270962,71.7889112 C367.578788,71.7889112 359.779355,68.7886843 352.862059,62.7641285 C345.245802,56.115811 341.44635,47.3956786 341.44635,36.6124083" id="Fill-6" fill="#9FC739"></path>
            <polygon id="Fill-8" fill="#050013" points="477.657034 35.3874442 459.128319 3.26901323 470.673216 3.26901323 483.541798 26.0628318 497.045711 3.26901323 508.682195 3.26901323 489.290626 35.3874442 509.64917 70.5716597 498.263348 70.5716597 483.361514 44.8113573 468.021987 70.5716597 456.50987 70.5716597"></polygon>
        </g>
    </g>
</svg>