<?xml version="1.0" encoding="UTF-8"?>
<svg width="84px" height="84px" viewBox="0 0 84 84" version="1.1" xmlns="http://www.w3.org/2000/svg" xmlns:xlink="http://www.w3.org/1999/xlink">
    <!-- Generator: Sketch 53.2 (72643) - https://sketchapp.com -->
    <title>Ic_brain</title>
    <desc>Created with Sketch.</desc>
    <g id="Ic_brain" stroke="none" stroke-width="1" fill="none" fill-rule="evenodd">
        <path d="M84,25.7415203 C84,23.5006532 82.1763871,21.6770697 79.9354839,21.6770697 C79.4694194,21.6770697 79.0277419,21.7719069 78.6104516,21.9168723 L72.5394194,14.3285431 C72.9269032,13.7066822 73.1612903,12.9791455 73.1612903,12.1933517 C73.1612903,9.95248464 71.3376774,8.12890115 69.0967742,8.12890115 C67.9573548,8.12890115 66.9303871,8.60308705 66.192,9.35907485 L55.5118065,4.43025112 C55.5226452,4.30831761 55.5483871,4.19044854 55.5483871,4.06445057 C55.5483871,1.82358349 53.7247742,0 51.483871,0 C49.719871,0 48.2295484,1.13669134 47.6686452,2.70963372 L32.2668387,2.70963372 C31.7059355,1.13669134 30.2156129,0 28.4516129,0 C26.2107097,0 24.3870968,1.82358349 24.3870968,4.06445057 C24.3870968,4.23244786 24.4169032,4.39367107 24.4372258,4.55760391 L17.7172258,7.91754972 C16.9856129,7.21304495 15.9965806,6.77408429 14.9032258,6.77408429 C12.6623226,6.77408429 10.8387097,8.59766778 10.8387097,10.8385349 C10.8387097,11.6243286 11.0730968,12.3518653 11.4605806,12.9737262 L5.38954839,20.5620555 C4.97225806,20.41709 4.53058065,20.3222529 4.06451613,20.3222529 C1.8236129,20.3222529 0,22.1458364 0,24.3867034 C0,26.150675 1.13670968,27.6409735 2.70967742,28.2018677 L2.70967742,36.8306963 C1.13670968,37.3902356 0,38.8805342 0,40.6445057 C0,42.8853728 1.8236129,44.7089563 4.06451613,44.7089563 C5.56974194,44.7089563 6.8703871,43.8770988 7.57354839,42.6591184 L14.9696129,44.0030967 C15.2825806,45.9350656 16.9490323,47.41859 18.9677419,47.41859 C19.0219355,47.41859 19.0734194,47.4050419 19.1276129,47.4023322 L21.7126452,53.8661634 C20.8672258,54.6113127 20.3225806,55.6897469 20.3225806,56.902308 C20.3225806,59.1431751 22.1461935,60.9667586 24.3870968,60.9667586 C25.7500645,60.9667586 26.9518065,60.2866405 27.6888387,59.2556249 L39.3160645,62.5776358 C39.4203871,64.2278028 40.5042581,65.6029419 42,66.1367397 L42,76.1203852 C40.4270323,76.6812793 39.2903226,78.1715779 39.2903226,79.9355494 C39.2903226,82.1764165 41.1139355,84 43.3548387,84 C45.5957419,84 47.4193548,82.1764165 47.4193548,79.9355494 C47.4193548,78.1715779 46.2826452,76.6812793 44.7096774,76.1203852 L44.7096774,66.1367397 C46.2826452,65.5758456 47.4193548,64.085547 47.4193548,62.3215755 C47.4193548,61.0236609 46.796129,59.8788407 45.8463871,59.1336914 L47.4640645,54.2793826 L59.6210323,58.3316398 C59.6535484,60.0617409 60.7726452,61.5181691 62.3225806,62.0709343 L62.3225806,76.1190303 C60.7496129,76.6799245 59.6129032,78.1702231 59.6129032,79.9341946 C59.6129032,82.1750617 61.4365161,83.9986452 63.6774194,83.9986452 C65.9183226,83.9986452 67.7419355,82.1750617 67.7419355,79.9341946 C67.7419355,78.1702231 66.6052258,76.6799245 65.0322581,76.1190303 L65.0322581,62.0722892 C66.6052258,61.511395 67.7419355,60.0210964 67.7419355,58.2571249 C67.7419355,57.7626167 67.6403226,57.2938501 67.4777419,56.8548894 L77.8734194,48.1921904 C78.4790323,48.5525717 79.1794839,48.7734069 79.9354839,48.7734069 C82.1763871,48.7734069 84,46.9498234 84,44.7089563 C84,42.9449848 82.8632903,41.4546862 81.2903226,40.893792 L81.2903226,29.5553298 C82.8632903,28.9957904 84,27.5054918 84,25.7415203 Z M69.0967742,10.8385349 C69.8432903,10.8385349 70.4516129,11.4454928 70.4516129,12.1933517 C70.4516129,12.9412106 69.8432903,13.5481686 69.0967742,13.5481686 C68.3502581,13.5481686 67.7419355,12.9412106 67.7419355,12.1933517 C67.7419355,11.4454928 68.3502581,10.8385349 69.0967742,10.8385349 Z M67.1701935,15.749746 C67.746,16.0640635 68.3963226,16.2578023 69.0967742,16.2578023 C69.5628387,16.2578023 70.0031613,16.1629651 70.4204516,16.0179997 L76.4914839,23.6076837 C76.1053548,24.2295447 75.8709677,24.9557265 75.8709677,25.7415203 C75.8709677,25.9596458 75.902129,26.1696424 75.936,26.379639 L66.3383226,31.6146514 L59.3487097,25.7902937 C59.5112903,25.3499782 59.6129032,24.8812116 59.6129032,24.3867034 C59.6129032,23.8366478 59.5004516,23.3109789 59.3012903,22.8327285 L67.1701935,15.749746 Z M50.1290323,37.934872 C49.5030968,37.934872 48.9178065,38.0879663 48.3880645,38.3426719 L42.6476129,32.6023129 L52.7818065,27.3469783 C53.5093548,28.0270963 54.4767097,28.451154 55.5483871,28.451154 C56.3043871,28.451154 57.0034839,28.2303189 57.6104516,27.8699376 L63.7790323,33.0101127 L52.827871,38.9835003 C52.1084516,38.3386074 51.1695484,37.934872 50.1290323,37.934872 Z M51.483871,41.9993226 C51.483871,42.7471815 50.8755484,43.3541394 50.1290323,43.3541394 C49.3825161,43.3541394 48.7741935,42.7471815 48.7741935,41.9993226 C48.7741935,41.2514637 49.3825161,40.6445057 50.1290323,40.6445057 C50.8755484,40.6445057 51.483871,41.2514637 51.483871,41.9993226 Z M31.0000645,27.0787245 L33.2748387,34.4082837 L21.7343226,40.3925098 C21.2506452,39.9413558 20.6585806,39.6134901 20.000129,39.4387187 L18.1223226,25.0397252 L27.4056774,24.575023 C27.9950323,26.003 29.3769677,27.0136933 31.0000645,27.0787245 Z M29.8064516,23.0318866 C29.8064516,22.2840277 30.4147742,21.6770697 31.1612903,21.6770697 C31.9078065,21.6770697 32.516129,22.2840277 32.516129,23.0318866 C32.516129,23.7797455 31.9078065,24.3867034 31.1612903,24.3867034 C30.4147742,24.3867034 29.8064516,23.7797455 29.8064516,23.0318866 Z M34.0890968,37.0393381 L37.5249677,48.1122563 L23.024129,43.2782697 C23.0214194,43.1156917 22.9970323,42.9585329 22.9753548,42.8013742 L34.0890968,37.0393381 Z M34.0796129,27.8672279 L38.1143226,31.9005177 L35.7176129,33.1428848 L34.0796129,27.8672279 Z M34.8193548,24.7728262 C35.0727097,24.2430929 35.2258065,23.657812 35.2258065,23.0318866 C35.2258065,22.4547346 35.1011613,21.9073886 34.8843871,21.4101708 L41.3171613,15.4056225 L51.6870968,23.1822713 C51.5665161,23.5670392 51.483871,23.9653554 51.483871,24.3867034 C51.483871,24.5763778 51.5150323,24.7565684 51.5394194,24.9394687 L40.6370323,30.5917646 L34.8193548,24.7728262 Z M54.1935484,24.3867034 C54.1935484,23.6388445 54.801871,23.0318866 55.5483871,23.0318866 C56.2949032,23.0318866 56.9032258,23.6388445 56.9032258,24.3867034 C56.9032258,25.1345623 56.2949032,25.7415203 55.5483871,25.7415203 C54.801871,25.7415203 54.1935484,25.1345623 54.1935484,24.3867034 Z M66.0185806,34.8756956 L75.726,42.965307 L54.692129,41.0536604 L66.0185806,34.8756956 Z M51.483871,2.70963372 C52.2303871,2.70963372 52.8387097,3.31659167 52.8387097,4.06445057 C52.8387097,4.81230948 52.2303871,5.41926743 51.483871,5.41926743 C50.7373548,5.41926743 50.1290323,4.81230948 50.1290323,4.06445057 C50.1290323,3.31659167 50.7373548,2.70963372 51.483871,2.70963372 Z M49.6223226,7.65607006 C50.181871,7.94735569 50.8091613,8.12890115 51.483871,8.12890115 C52.6232903,8.12890115 53.6502581,7.65471525 54.39,6.89737262 L65.0688387,11.8261964 C65.058,11.9494847 65.0322581,12.0673538 65.0322581,12.1933517 C65.0322581,12.7447622 65.1447097,13.2690763 65.343871,13.7486815 L57.4749677,20.8303092 C56.8991613,20.5159917 56.2488387,20.3222529 55.5483871,20.3222529 C54.7165161,20.3222529 53.9429032,20.5756036 53.298,21.0064354 L43.3290968,13.5292011 L49.6223226,7.65607006 Z M47.6686452,5.41926743 C47.7011613,5.50733053 47.7241935,5.59945807 47.7607742,5.68481154 L41.126129,11.8763246 L32.516129,5.41926743 L47.6686452,5.41926743 Z M28.4516129,2.70963372 C29.198129,2.70963372 29.8064516,3.31659167 29.8064516,4.06445057 C29.8064516,4.81230948 29.198129,5.41926743 28.4516129,5.41926743 C27.7050968,5.41926743 27.0967742,4.81230948 27.0967742,4.06445057 C27.0967742,3.31659167 27.7050968,2.70963372 28.4516129,2.70963372 Z M18.9677419,10.8385349 C18.9677419,10.6705376 18.9379355,10.5093144 18.9176129,10.3467363 L25.6376129,6.98679054 C26.3692258,7.68994048 27.3582581,8.12890115 28.4516129,8.12890115 C29.2834839,8.12890115 30.0570968,7.87555039 30.702,7.44471863 L39.1141935,13.7541007 L33.0228387,19.4389123 C32.4632903,19.1476267 31.836,18.967436 31.1612903,18.967436 C29.3268387,18.967436 27.7904516,20.1962549 27.2864516,21.8680989 L17.7700645,22.3436396 L16.7403871,14.4437025 C18.0559355,13.7703585 18.9677419,12.4155417 18.9677419,10.8385349 Z M14.9032258,9.483718 C15.6497419,9.483718 16.2580645,10.090676 16.2580645,10.8385349 C16.2580645,11.5863938 15.6497419,12.1933517 14.9032258,12.1933517 C14.1567097,12.1933517 13.5483871,11.5863938 13.5483871,10.8385349 C13.5483871,10.090676 14.1567097,9.483718 14.9032258,9.483718 Z M13.5781935,14.6631829 C13.7353548,14.7173755 13.8898065,14.7756327 14.0537419,14.8108579 L15.0536129,22.4804761 L7.82012903,22.8422122 C7.73477419,22.6349252 7.62503226,22.4411864 7.50716129,22.2515121 L13.5781935,14.6631829 Z M4.06451613,23.0318866 C4.81103226,23.0318866 5.41935484,23.6388445 5.41935484,24.3867034 C5.41935484,25.1345623 4.81103226,25.7415203 4.06451613,25.7415203 C3.318,25.7415203 2.70967742,25.1345623 2.70967742,24.3867034 C2.70967742,23.6388445 3.318,23.0318866 4.06451613,23.0318866 Z M4.06451613,41.9993226 C3.318,41.9993226 2.70967742,41.3923646 2.70967742,40.6445057 C2.70967742,39.8966468 3.318,39.2896889 4.06451613,39.2896889 C4.81103226,39.2896889 5.41935484,39.8966468 5.41935484,40.6445057 C5.41935484,41.3923646 4.81103226,41.9993226 4.06451613,41.9993226 Z M15.4587097,41.3395268 L8.064,39.9955485 C7.82419355,38.5201529 6.79451613,37.3197852 5.41935484,36.8293415 L5.41935484,28.2005129 C6.62922581,27.7683263 7.56677419,26.7860841 7.93935484,25.5491363 L15.4072258,25.1752069 L17.295871,39.6581991 C16.5181935,40.0118063 15.8827742,40.6038612 15.4587097,41.3395268 Z M18.9677419,44.7089563 C18.2212258,44.7089563 17.6129032,44.1019984 17.6129032,43.3541394 C17.6129032,42.6062805 18.2212258,41.9993226 18.9677419,41.9993226 C19.7142581,41.9993226 20.3225806,42.6062805 20.3225806,43.3541394 C20.3225806,44.1019984 19.7142581,44.7089563 18.9677419,44.7089563 Z M24.3870968,58.2571249 C23.6405806,58.2571249 23.0322581,57.6501669 23.0322581,56.902308 C23.0322581,56.1544491 23.6405806,55.5474912 24.3870968,55.5474912 C25.1336129,55.5474912 25.7419355,56.1544491 25.7419355,56.902308 C25.7419355,57.6501669 25.1336129,58.2571249 24.3870968,58.2571249 Z M40.0544516,59.9682586 L28.4272258,56.6462476 C28.2903871,54.5259593 26.5412903,52.8378575 24.3870968,52.8378575 C24.3329032,52.8378575 24.2814194,52.8514056 24.2272258,52.8541153 L21.6421935,46.390284 C21.8305161,46.2236416 22.0012258,46.0420961 22.1570323,45.8442928 L38.5153548,51.2974307 L40.9310323,59.0794987 C40.5963871,59.3314947 40.2983226,59.6281995 40.0544516,59.9682586 Z M43.3548387,81.2890115 C42.6083226,81.2890115 42,80.6820535 42,79.9341946 C42,79.1863357 42.6083226,78.5793778 43.3548387,78.5793778 C44.1013548,78.5793778 44.7096774,79.1863357 44.7096774,79.9341946 C44.7096774,80.6820535 44.1013548,81.2890115 43.3548387,81.2890115 Z M43.3548387,63.6763923 C42.6083226,63.6763923 42,63.0694344 42,62.3215755 C42,61.5737166 42.6083226,60.9667586 43.3548387,60.9667586 C44.1013548,60.9667586 44.7096774,61.5737166 44.7096774,62.3215755 C44.7096774,63.0694344 44.1013548,63.6763923 43.3548387,63.6763923 Z M43.4009032,57.8994532 L41.6789032,52.352833 L44.8925806,53.4244932 L43.4009032,57.8994532 Z M45.7501935,50.8530508 L40.6912258,49.1663038 L36.5345806,35.7725843 L40.1249032,33.911066 L46.4723226,40.2583829 C46.2176129,40.7881163 46.0645161,41.3733972 46.0645161,41.9993226 C46.0645161,43.2972371 46.6877419,44.4434122 47.6388387,45.1872067 L45.7501935,50.8530508 Z M63.6774194,81.2890115 C62.9309032,81.2890115 62.3225806,80.6820535 62.3225806,79.9341946 C62.3225806,79.1863357 62.9309032,78.5793778 63.6774194,78.5793778 C64.4239355,78.5793778 65.0322581,79.1863357 65.0322581,79.9341946 C65.0322581,80.6820535 64.4239355,81.2890115 63.6774194,81.2890115 Z M63.6774194,59.6119417 C62.9309032,59.6119417 62.3225806,59.0049838 62.3225806,58.2571249 C62.3225806,57.509266 62.9309032,56.902308 63.6774194,56.902308 C64.4239355,56.902308 65.0322581,57.509266 65.0322581,58.2571249 C65.0322581,59.0049838 64.4239355,59.6119417 63.6774194,59.6119417 Z M65.7394839,54.7725359 C65.1325161,54.4135095 64.4334194,54.1926743 63.6774194,54.1926743 C62.3794839,54.1926743 61.2332903,54.8158901 60.4894839,55.7669715 L48.3203226,51.7106498 L50.2049032,46.0556443 C51.8063226,46.0258383 53.1760645,45.066628 53.810129,43.6941985 L76.0105161,45.7115208 C76.0457419,45.8470025 76.0863871,45.9797745 76.1351613,46.1098369 L65.7394839,54.7725359 Z M68.577871,33.4788794 L77.2366452,28.7559878 C77.6254839,29.1055306 78.0793548,29.3764939 78.582,29.5553298 L78.582,40.893792 C78.3327097,40.9832099 78.0969677,41.0929501 77.8734194,41.2257222 L68.577871,33.4788794 Z M79.9354839,46.0637732 C79.1889677,46.0637732 78.5806452,45.4568152 78.5806452,44.7089563 C78.5806452,43.9610974 79.1889677,43.3541394 79.9354839,43.3541394 C80.682,43.3541394 81.2903226,43.9610974 81.2903226,44.7089563 C81.2903226,45.4568152 80.682,46.0637732 79.9354839,46.0637732 Z M79.9354839,27.0963372 C79.1889677,27.0963372 78.5806452,26.4893792 78.5806452,25.7415203 C78.5806452,24.9936614 79.1889677,24.3867034 79.9354839,24.3867034 C80.682,24.3867034 81.2903226,24.9936614 81.2903226,25.7415203 C81.2903226,26.4893792 80.682,27.0963372 79.9354839,27.0963372 Z" id="Shape" fill="#A3CC39" fill-rule="nonzero"></path>
        <rect id="Rectangle" fill="#A3CC39" fill-rule="nonzero" x="3" y="0" width="2" height="2"></rect>
        <rect id="Rectangle" fill="#A3CC39" fill-rule="nonzero" x="3" y="5" width="2" height="2"></rect>
        <rect id="Rectangle" fill="#A3CC39" fill-rule="nonzero" x="5" y="3" width="2" height="2"></rect>
        <rect id="Rectangle" fill="#A3CC39" fill-rule="nonzero" x="0" y="3" width="2" height="2"></rect>
        <rect id="Rectangle" fill="#A3CC39" fill-rule="nonzero" x="72" y="62" width="2" height="2"></rect>
        <rect id="Rectangle" fill="#A3CC39" fill-rule="nonzero" x="72" y="67" width="2" height="2"></rect>
        <rect id="Rectangle" fill="#A3CC39" fill-rule="nonzero" x="74" y="64" width="2" height="2"></rect>
        <rect id="Rectangle" fill="#A3CC39" fill-rule="nonzero" x="67" y="64" width="2" height="2"></rect>
        <rect id="Rectangle" fill="#A3CC39" fill-rule="nonzero" x="79" y="5" width="2" height="2"></rect>
        <rect id="Rectangle" fill="#A3CC39" fill-rule="nonzero" x="79" y="10" width="2" height="2"></rect>
        <rect id="Rectangle" fill="#A3CC39" fill-rule="nonzero" x="82" y="8" width="2" height="2"></rect>
        <rect id="Rectangle" fill="#A3CC39" fill-rule="nonzero" x="77" y="8" width="2" height="2"></rect>
        <rect id="Rectangle" fill="#A3CC39" fill-rule="nonzero" x="18" y="64" width="2" height="2"></rect>
        <rect id="Rectangle" fill="#A3CC39" fill-rule="nonzero" x="18" y="72" width="2" height="2"></rect>
        <rect id="Rectangle" fill="#A3CC39" fill-rule="nonzero" x="20" y="67" width="2" height="2"></rect>
        <rect id="Rectangle" fill="#A3CC39" fill-rule="nonzero" x="15" y="67" width="2" height="2"></rect>
        <rect id="Rectangle" fill="#A3CC39" fill-rule="nonzero" x="8" y="50" width="2" height="2"></rect>
        <rect id="Rectangle" fill="#A3CC39" fill-rule="nonzero" x="8" y="55" width="2" height="2"></rect>
        <rect id="Rectangle" fill="#A3CC39" fill-rule="nonzero" x="10" y="52" width="2" height="2"></rect>
        <rect id="Rectangle" fill="#A3CC39" fill-rule="nonzero" x="5" y="52" width="2" height="2"></rect>
    </g>
</svg>