<?xml version="1.0" encoding="UTF-8"?>
<svg width="90px" height="90px" viewBox="0 0 90 90" version="1.1" xmlns="http://www.w3.org/2000/svg" xmlns:xlink="http://www.w3.org/1999/xlink">
    <!-- Generator: Sketch 53.2 (72643) - https://sketchapp.com -->
    <title>Ic_HomeOffice</title>
    <desc>Created with Sketch.</desc>
    <g id="Ic_HomeOffice" stroke="none" stroke-width="1" fill="none" fill-rule="evenodd">
        <g id="desk" fill="#A3CC39">
            <path d="M83.320214,15.9193191 C82.9947082,15.5936381 82.5429572,15.406284 82.0822763,15.406284 C81.6217704,15.406284 81.1700195,15.593463 80.8445136,15.9193191 C80.5188327,16.245 80.3313035,16.6965759 80.3313035,17.1572568 C80.3313035,17.6177626 80.5186576,18.0695136 80.8445136,18.3950195 C81.1719455,18.7207004 81.6217704,18.9082296 82.0822763,18.9082296 C82.5427821,18.9082296 82.9945331,18.7208755 83.320214,18.3950195 C83.6476459,18.0695136 83.833249,17.6177626 83.833249,17.1572568 C83.833249,16.6965759 83.6476459,16.245 83.320214,15.9193191 Z" id="Path"></path>
            <path d="M66.8994163,37.5595914 C66.5739105,37.2339105 66.1221595,37.0465564 65.6616537,37.0465564 C65.2011479,37.0465564 64.7493969,37.2337354 64.423716,37.5595914 C64.098035,37.8854475 63.9106809,38.3352724 63.9106809,38.7975292 C63.9106809,39.258035 64.0978599,39.709786 64.423716,40.0352918 C64.7493969,40.3609728 65.2011479,40.5485019 65.6616537,40.5485019 C66.1221595,40.5485019 66.5739105,40.3611479 66.8994163,40.0352918 C67.2250973,39.709786 67.4126265,39.258035 67.4126265,38.7975292 C67.4126265,38.3370233 67.2250973,37.8852724 66.8994163,37.5595914 Z" id="Path"></path>
            <path d="M88.0742802,52.5269066 L84.922179,52.5269066 L84.922179,52.1049222 C84.922179,49.208463 82.5657198,46.8520039 79.6692607,46.8520039 C76.7728016,46.8520039 74.4163424,49.208463 74.4163424,52.1049222 L74.4163424,52.5269066 L71.4396887,52.5269066 L71.4396887,44.7508366 L83.7840467,44.7508366 C87.1149222,44.7508366 89.8249027,42.040856 89.8249027,38.7099805 L89.8249027,14.3714591 C89.8249027,11.0405837 87.1149222,8.33060311 83.7840467,8.33060311 L47.5389105,8.33060311 C46.5720233,8.33060311 45.7879377,9.11468872 45.7879377,10.0815759 C45.7879377,11.048463 46.5720233,11.8325486 47.5389105,11.8325486 L64.0917315,11.8325486 L55.8124319,20.1118482 C55.128677,20.7956031 55.128677,21.9043191 55.8124319,22.588249 C56.1543969,22.9300389 56.6024708,23.1011089 57.0505447,23.1011089 C57.4986187,23.1011089 57.9466926,22.9300389 58.2886576,22.588249 L69.044358,11.8325486 L83.7840467,11.8325486 C85.1839494,11.8325486 86.3229572,12.9715564 86.3229572,14.3714591 L86.3229572,32.8442218 L68.8718872,32.8442218 L79.1770623,22.5388716 C79.8608171,21.8551167 79.8608171,20.7464008 79.1770623,20.0624708 C78.4931323,19.3788911 77.3847665,19.3788911 76.7006615,20.0624708 L64.2701556,32.4931518 C64.162821,32.6004864 64.0742218,32.7192023 64.0006809,32.8442218 L45,32.8442218 L45,21.3499611 C45,20.3830739 44.2159144,19.5989883 43.2490272,19.5989883 C42.2821401,19.5989883 41.4980545,20.3830739 41.4980545,21.3499611 L41.4980545,38.7099805 C41.4980545,42.040856 44.208035,44.7508366 47.5389105,44.7508366 L59.8832685,44.7508366 L59.8832685,52.5269066 L29.2403696,52.5269066 C28.4268677,48.5355642 24.8897276,45.5230156 20.6616537,45.5230156 L19.0791245,45.5230156 L19.0791245,44.8448638 C19.0791245,43.8779767 18.2950389,43.0938911 17.3281518,43.0938911 C16.3612646,43.0938911 15.577179,43.8779767 15.577179,44.8448638 L15.577179,45.5230156 L13.9892218,45.5230156 L4.08151751,26.8637743 L16.6759144,14.3325875 L17.3320039,14.9885019 C17.2414786,15.5938132 17.1949027,16.2099805 17.1949027,16.8333268 C17.1949027,20.1185019 18.4743385,23.2068677 20.797179,25.5298833 L23.905856,28.6387354 L28.000856,39.2277432 C28.2694553,39.922179 28.9320233,40.3476654 29.6343385,40.3476654 C29.8442802,40.3476654 30.0578988,40.3094942 30.2653891,40.2292996 C31.1673152,39.8805058 31.6159144,38.8665175 31.2671206,37.9645914 L27.4498249,28.0938327 L40.7554669,14.7881907 L50.6742023,18.6075875 C50.8813424,18.6872568 51.0937354,18.7250778 51.3031518,18.7250778 C52.0063424,18.7250778 52.669786,18.2981907 52.9375097,17.6028794 C53.2849027,16.700428 52.8350778,15.6871401 51.9328016,15.339572 L41.2980934,11.244572 L38.1904669,8.13677043 C35.325,5.2713035 31.3860117,4.11968872 27.6562646,4.67859922 L24.1592218,1.18173152 C22.5871984,-0.390291829 20.0300778,-0.389941634 18.4584047,1.18173152 L13.841965,5.79799611 C12.2702918,7.36984436 12.2702918,9.92696498 13.841965,11.4988132 L14.1995136,11.8563619 L0.690933852,25.2970039 C0.144455253,25.840856 0.0178599222,26.6783463 0.379610895,27.3592996 L10.0243191,45.5228405 L8.93013619,45.5228405 C4.10270428,45.5228405 0.175272374,49.4502724 0.175272374,54.2777043 L0.175272374,62.6823735 C0.175272374,63.6492607 0.959357977,64.4333463 1.92624514,64.4333463 L7.17671206,64.4333463 L7.17671206,87.8963813 C7.17671206,88.8632685 7.96079767,89.6473541 8.92768482,89.6473541 L15.9315759,89.6473541 C16.898463,89.6473541 17.6825486,88.8632685 17.6825486,87.8963813 L17.6825486,64.4333463 L37.5585409,64.4333463 C38.525428,64.4333463 39.3095136,63.6492607 39.3095136,62.6823735 C39.3095136,61.7154864 38.525428,60.9314008 37.5585409,60.9314008 L3.6772179,60.9314008 L3.6772179,56.028677 L27.6655447,56.028677 L86.3233074,56.028677 L86.3233074,60.9314008 L53.1420233,60.9314008 C52.1751362,60.9314008 51.3910506,61.7154864 51.3910506,62.6823735 C51.3910506,63.6492607 52.1751362,64.4333463 53.1420233,64.4333463 L72.3151751,64.4333463 L72.3151751,87.8963813 C72.3151751,88.8632685 73.0992607,89.6473541 74.0661479,89.6473541 L81.0700389,89.6473541 C82.0369261,89.6473541 82.8210117,88.8632685 82.8210117,87.8963813 L82.8210117,64.4333463 L88.0741051,64.4333463 C89.0409922,64.4333463 89.8250778,63.6492607 89.8250778,62.6823735 L89.8250778,54.2777043 C89.8250778,53.3108171 89.0411673,52.5269066 88.0742802,52.5269066 Z M29.4935603,8.03678988 C30.4094942,8.03643969 31.3030156,8.1772179 32.1517121,8.44511673 L24.5356809,16.061323 C23.8519261,16.7450778 23.8519261,17.8537938 24.5356809,18.5377237 C24.8776459,18.8795136 25.3257198,19.0505837 25.7737938,19.0505837 C26.2218677,19.0505837 26.6699416,18.8795136 27.0119066,18.5377237 L35.3116926,10.2377626 C35.4486187,10.35893 35.5834436,10.4828988 35.7138911,10.6133463 L37.8460506,12.7455058 L25.4055642,25.1859922 L23.2734047,23.0538327 C21.6119066,21.3923346 20.6966732,19.1833074 20.6966732,16.833677 C20.6966732,14.4840467 21.6119066,12.2750195 23.2734047,10.6135214 C24.9349027,8.95202335 27.1437549,8.03678988 29.4935603,8.03678988 Z M16.3183658,8.27422179 L20.9346304,3.6579572 C21.14107,3.45169261 21.4767315,3.4520428 21.6826459,3.6579572 L23.9044553,5.87976654 C22.784358,6.45040856 21.7328988,7.20087549 20.7970039,8.13677043 C19.8721401,9.06163424 19.1158949,10.1092412 18.5366732,11.2408949 L16.3181907,9.02241245 C16.1121012,8.81614786 16.1121012,8.48048638 16.3183658,8.27422179 Z M10.6788327,64.4335214 L14.1807782,64.4335214 L14.1807782,86.1455837 L10.6788327,86.1455837 L10.6788327,64.4335214 Z M3.97715953,52.5269066 C4.69978599,50.4885992 6.6472179,49.0249611 8.92996109,49.0249611 L12.9326848,49.0249611 C12.9344358,49.0249611 12.9361868,49.0253113 12.9377626,49.0253113 C12.9396887,49.0253113 12.9414397,49.0249611 12.9435409,49.0249611 L20.6614786,49.0249611 C22.9442218,49.0249611 24.8916537,50.4885992 25.6142802,52.5269066 L3.97715953,52.5269066 Z M47.5389105,41.2488911 C46.1390078,41.2488911 45,40.1098833 45,38.7099805 L45,36.3461673 L86.3229572,36.3461673 L86.3229572,38.7099805 C86.3229572,40.1098833 85.1839494,41.2488911 83.7840467,41.2488911 L47.5389105,41.2488911 Z M67.9377432,52.5269066 L63.385214,52.5269066 L63.385214,44.7508366 L67.9377432,44.7508366 L67.9377432,52.5269066 Z M81.4202335,52.4551167 L77.9182879,52.4551167 L77.9182879,52.1049222 C77.9182879,51.1394358 78.7037743,50.3539494 79.6692607,50.3539494 C80.6347471,50.3539494 81.4202335,51.1394358 81.4202335,52.1049222 L81.4202335,52.4551167 Z M79.3190661,86.1455837 L75.8171206,86.1455837 L75.8171206,64.4335214 L79.3190661,64.4335214 L79.3190661,86.1455837 Z" id="Shape" fill-rule="nonzero"></path>
            <path d="M46.9383268,61.4446109 C46.612821,61.1187549 46.16107,60.9315759 45.7005642,60.9315759 C45.2400584,60.9315759 44.7883074,61.1187549 44.4626265,61.4446109 C44.1369455,61.7704669 43.9495914,62.2218677 43.9495914,62.6825486 C43.9495914,63.1430545 44.1367704,63.5948054 44.4626265,63.9203113 C44.7883074,64.2459922 45.2400584,64.4335214 45.7005642,64.4335214 C46.16107,64.4335214 46.61107,64.2461673 46.9383268,63.9203113 C47.2640078,63.5948054 47.451537,63.1430545 47.451537,62.6825486 C47.4513619,62.2218677 47.2640078,61.7702918 46.9383268,61.4446109 Z" id="Path"></path>
        </g>
    </g>
</svg>