<?xml version="1.0" encoding="UTF-8"?>
<svg width="90px" height="90px" viewBox="0 0 90 90" version="1.1" xmlns="http://www.w3.org/2000/svg" xmlns:xlink="http://www.w3.org/1999/xlink">
    <!-- Generator: Sketch 53.2 (72643) - https://sketchapp.com -->
    <title>Ic_Hour</title>
    <desc>Created with Sketch.</desc>
    <g id="Ic_Hour" stroke="none" stroke-width="1" fill="none" fill-rule="evenodd">
        <g fill="#2AA7DF">
            <path d="M76.8199219,13.1802539 C68.3203711,4.68070312 57.0199219,0 45,0 C32.9800781,0 21.6796289,4.68070312 13.1800781,13.1802539 C4.68087891,21.6796289 0,32.9800781 0,45 C0,57.0199219 4.68087891,68.3203711 13.1800781,76.8197461 C21.6796289,85.3192969 32.9800781,90 45,90 C57.0199219,90 68.3203711,85.3192969 76.8199219,76.8197461 C85.3191211,68.3203711 90,57.0199219 90,45 C90,32.9800781 85.3191211,21.6796289 76.8199219,13.1802539 Z M45,86.484375 C22.1254102,86.484375 3.515625,67.8745898 3.515625,45 C3.515625,22.1254102 22.1254102,3.515625 45,3.515625 C67.8745898,3.515625 86.484375,22.1254102 86.484375,45 C86.484375,67.8745898 67.8745898,86.484375 45,86.484375 Z" id="Shape" fill-rule="nonzero"></path>
            <path d="M82.3773677,37.9964146 C79.9845107,25.4844061 71.6009906,14.9835719 59.9507235,9.90660271 C59.051272,9.51451393 58.0060834,9.93071751 57.6164454,10.8358263 C57.2269848,11.7411138 57.6404094,12.7928763 58.5400385,13.1847865 C69.1124548,17.7921422 76.720249,27.3198103 78.8910389,38.6714504 C79.0545272,39.5261861 79.798301,40.1204819 80.6324282,40.1204819 C80.7435505,40.1204819 80.8564479,40.1099429 80.9695228,40.0879716 C81.9321685,39.9016624 82.5625124,38.9651151 82.3773677,37.9964146 Z" id="Path"></path>
            <path d="M52.9564481,7.63639282 L52.9142421,7.62714285 C52.0449916,7.43824873 51.1875007,7.99551883 51.0003123,8.87183173 C50.8129627,9.74798236 51.3661514,10.6111506 52.2358852,10.7998824 L52.2547329,10.8041017 C52.3729742,10.8307156 52.4908932,10.8433735 52.6072014,10.8433735 C53.3450012,10.8433735 54.0106318,10.3292699 54.177845,9.57369346 C54.3716382,8.69884108 53.8247321,7.83161586 52.9564481,7.63639282 Z" id="Path"></path>
            <path d="M31.4576314,76.8266582 C20.8467038,72.31302 13.2179449,62.7778949 11.0504438,51.3202252 C10.8683786,50.357266 9.95438686,49.725829 9.00653062,49.9120993 C8.05972175,50.0973043 7.44003673,51.028301 7.62210194,51.9912602 C8.79705963,58.2012195 11.5091853,64.0805445 15.4659177,68.9933588 C19.3769157,73.8495286 24.4410514,77.6910663 30.1107329,80.1029924 C30.3306774,80.1965715 30.5590008,80.2409639 30.7834839,80.2409639 C31.4661848,80.2409639 32.114672,79.8307784 32.3944904,79.1497995 C32.7664759,78.2450831 32.3470103,77.2048812 31.4576314,76.8266582 Z" id="Path"></path>
            <path d="M37.796538,79.2173272 L37.6992466,79.1953692 C36.8511744,79.0021061 36.0095568,79.5507342 35.8209564,80.4211444 C35.6323559,81.2915546 36.1674585,82.1540534 37.0163179,82.3474779 L37.1265184,82.3723422 C37.2393953,82.3975293 37.3521148,82.4096386 37.4631025,82.4096386 C38.1874352,82.4096386 38.8393504,81.8937861 38.9997709,81.1384941 C39.1847505,80.2671152 38.6460271,79.4070382 37.796538,79.2173272 Z" id="Path"></path>
            <path d="M81.0033755,51.0047357 C80.0406337,50.7970659 79.0882517,51.4010199 78.8780203,52.3530899 C75.8956642,65.8728025 65.0818772,76.2981109 51.328602,78.9124219 C50.3597873,79.0964488 49.7256995,80.0215236 49.9119963,80.9783575 C50.0765019,81.8226228 50.8249041,82.4096386 51.664222,82.4096386 C51.7760358,82.4096386 51.8898144,82.3992286 52.003593,82.3775265 C59.4165259,80.9684769 66.2039447,77.4546749 71.6319149,72.2161723 C77.0514902,66.9856094 80.7642083,60.3768739 82.3683611,53.1041949 C82.5782353,52.1521248 81.9671889,51.2122291 81.0033755,51.0047357 Z" id="Path"></path>
            <path d="M40.0880037,9.02189807 C39.9015283,8.06506836 38.9652218,7.43765061 37.996407,7.62273532 C30.5834741,9.03177866 23.7960553,12.5455651 18.3680851,17.7840445 C12.9485098,23.0145842 9.23579172,29.6232904 7.63163888,36.8959372 C7.42176475,37.8480031 8.03281105,38.7878946 8.99662452,38.9953871 C9.12469239,39.0229116 9.25276027,39.0361446 9.37868475,39.0361446 C10.2004983,39.0361446 10.9401483,38.4725978 11.1221583,37.6470389 C14.1045144,24.1272097 24.9183014,13.7021239 38.671398,11.0878245 C39.6402127,10.9037984 40.2743005,9.97872778 40.0880037,9.02189807 Z" id="Path"></path>
            <path d="M45,39.0361446 C41.71146,39.0361446 39.0361446,41.71146 39.0361446,45 C39.0361446,48.28854 41.71146,50.9638554 45,50.9638554 C48.28854,50.9638554 50.9638554,48.28854 50.9638554,45 C50.9638554,41.71146 48.28854,39.0361446 45,39.0361446 Z M45,47.4557052 C43.645854,47.4557052 42.5442948,46.354146 42.5442948,45 C42.5442948,43.645854 43.645854,42.5442948 45,42.5442948 C46.354146,42.5442948 47.4557052,43.645854 47.4557052,45 C47.4557052,46.354146 46.354146,47.4557052 45,47.4557052 Z" id="Shape" fill-rule="nonzero"></path>
            <path d="M45,6.5060241 C44.1018434,6.5060241 43.373494,7.30733631 43.373494,8.29586598 L43.373494,12.3065437 C43.373494,13.2950733 44.1018434,14.0963855 45,14.0963855 C45.8983193,14.0963855 46.626506,13.2950733 46.626506,12.3065437 L46.626506,8.29586598 C46.626506,7.30733631 45.8981566,6.5060241 45,6.5060241 Z" id="Path"></path>
            <path d="M45,74.8192771 C44.1018434,74.8192771 43.373494,75.6032852 43.373494,76.5704679 L43.373494,81.7427851 C43.373494,82.7099678 44.1018434,83.4939759 45,83.4939759 C45.8981566,83.4939759 46.626506,82.7099678 46.626506,81.7427851 L46.626506,76.5704679 C46.626506,75.6032852 45.8981566,74.8192771 45,74.8192771 Z" id="Path"></path>
            <path d="M81.6482953,43.373494 L76.6649577,43.373494 C75.6457729,43.373494 74.8192771,44.1016807 74.8192771,45 C74.8192771,45.8983193 75.6457729,46.626506 76.6649577,46.626506 L81.6482953,46.626506 C82.6674801,46.626506 83.4939759,45.8983193 83.4939759,45 C83.4939759,44.1016807 82.6674801,43.373494 81.6482953,43.373494 Z" id="Path"></path>
            <path d="M13.4103762,43.373494 L8.27637079,43.373494 C7.29878535,43.373494 6.5060241,44.1016807 6.5060241,45 C6.5060241,45.8983193 7.29878535,46.626506 8.27637079,46.626506 L13.4103762,46.626506 C14.3879616,46.626506 15.1807229,45.8983193 15.1807229,45 C15.1807229,44.1016807 14.3879616,43.373494 13.4103762,43.373494 Z" id="Path"></path>
            <path d="M40.4727632,43.373494 L32.1778392,43.373494 C31.1748268,43.373494 30.3614458,44.1016807 30.3614458,45 C30.3614458,45.8983193 31.1748268,46.626506 32.1778392,46.626506 L40.4727632,46.626506 C41.4757756,46.626506 42.2891566,45.8983193 42.2891566,45 C42.2891566,44.1016807 41.4757756,43.373494 40.4727632,43.373494 Z" id="Path"></path>
            <path d="M45,22.7710843 C44.1018434,22.7710843 43.373494,23.5398423 43.373494,24.4882118 L43.373494,40.5720292 C43.373494,41.5203987 44.1018434,42.2891566 45,42.2891566 C45.8981566,42.2891566 46.626506,41.5203987 46.626506,40.5720292 L46.626506,24.4882118 C46.626506,23.5398423 45.8981566,22.7710843 45,22.7710843 Z" id="Path"></path>
        </g>
    </g>
</svg>