<?xml version="1.0" encoding="UTF-8"?>
<svg width="90px" height="90px" viewBox="0 0 90 90" version="1.1" xmlns="http://www.w3.org/2000/svg" xmlns:xlink="http://www.w3.org/1999/xlink">
    <!-- Generator: Sketch 53.2 (72643) - https://sketchapp.com -->
    <title>Ic_Workshops</title>
    <desc>Created with Sketch.</desc>
    <g id="Ic_Workshops" stroke="none" stroke-width="1" fill="none" fill-rule="evenodd">
        <g id="meeting" fill="#2AA7DF">
            <path d="M88.5,49.5 L84,49.5 L84,46.5 C83.9970703,44.5458984 83.0412598,42.7163085 81.4394531,41.5979004 C83.0595703,40.1879884 83.9926759,38.1474609 84,36 C83.9970703,35.6484375 83.9663085,35.296875 83.9084473,34.9497071 C83.9626464,34.8054199 83.9934082,34.6538085 84,34.5 C83.994873,30.3596192 80.6403808,27.005127 76.5,27 L72,27 C70.3432616,27 69,25.6567384 69,24 C69,23.1716308 68.3283692,22.5 67.5,22.5 C66.6716308,22.5 66,23.1716308 66,24 L66,30 C66.0161134,32.1540527 67.1857911,34.1345214 69.0644531,35.1884766 C69.0263672,35.4572754 69.0043946,35.7282714 69,36 C69.0095214,38.9077147 70.6992187,41.5473634 73.3352051,42.7741699 C72.4768067,43.8266603 72.0058594,45.1420897 72,46.5 L72,49.5 L55.5,49.5 L55.5,37.5 C55.4904786,34.3571777 53.5195312,31.5541991 50.5649415,30.4812011 C51.8041991,29.1181641 52.4941406,27.3427734 52.5,25.5 L52.5,23.1657714 C54.3500977,22.1022949 55.4934082,20.1335449 55.5,18 L55.5,12 C55.5,11.1716308 54.8283692,10.5 54,10.5 C53.1716308,10.5 52.5,11.1716308 52.5,12 C52.5,13.6567384 51.1567384,15 49.5,15 L43.5,15 C40.1865234,15 37.5,17.6865234 37.5,21 L37.5,25.5 C37.5058594,27.3427734 38.1958009,29.1181641 39.4350585,30.4812011 C36.4804687,31.5541991 34.5095214,34.3571777 34.5,37.5 L34.5,49.5 L18,49.5 L18,46.5 C17.9941406,45.1420897 17.5231933,43.8266603 16.6647949,42.7741699 C19.3007812,41.5473634 20.9904786,38.9077147 21,36 C20.9956054,35.7282714 20.9736328,35.4572754 20.9355469,35.1884766 C22.8142089,34.1345214 23.9838866,32.1540527 24,30 L24,24 C24,23.1716308 23.3283692,22.5 22.5,22.5 C21.6716308,22.5 21,23.1716308 21,24 C21,25.6567384 19.6567384,27 18,27 L13.5,27 C9.35961919,27.005127 6.005127,30.3596192 6,34.5 C6.00659175,34.6538085 6.03735356,34.8054199 6.09155269,34.9497071 C6.0336915,35.296875 6.00292969,35.6484375 6,36 C6.00732412,38.1474609 6.94042969,40.1879884 8.56054687,41.5979004 C6.95874019,42.7163085 6.00292969,44.5458984 6,46.5 L6,49.5 L1.5,49.5 C0.671630812,49.5 -5.68434189e-14,50.1716308 -5.68434189e-14,51 L-5.68434189e-14,88.5 C-5.68434189e-14,89.3283692 0.671630812,90 1.5,90 L7.5,90 C8.32836919,90 9,89.3283692 9,88.5 L9,76.5 L19.5,76.5 L19.5,88.5 C19.5,89.3283692 20.1716308,90 21,90 L28.5,90 C30.9851074,90 33,87.9851074 33,85.5 C33,83.0148926 30.9851074,81 28.5,81 L28.5,69 C28.494873,64.8596192 25.1403808,61.505127 21,61.5 L18,61.5 L18,58.5 L34.5,58.5 L34.5,75 C34.5,75.8283692 35.1716308,76.5 36,76.5 L42,76.5 C42.8283692,76.5 43.5,75.8283692 43.5,75 L43.5,58.5 L46.5,58.5 L46.5,75 C46.5,75.8283692 47.1716308,76.5 48,76.5 L54,76.5 C54.8283692,76.5 55.5,75.8283692 55.5,75 L55.5,58.5 L72,58.5 L72,61.5 L69,61.5 C64.8596192,61.505127 61.505127,64.8596192 61.5,69 L61.5,81 C59.0148926,81 57,83.0148926 57,85.5 C57,87.9851074 59.0148926,90 61.5,90 L69,90 C69.8283692,90 70.5,89.3283692 70.5,88.5 L70.5,76.5 L81,76.5 L81,88.5 C81,89.3283692 81.6716308,90 82.5,90 L88.5,90 C89.3283692,90 90,89.3283692 90,88.5 L90,51 C90,50.1716308 89.3283692,49.5 88.5,49.5 L88.5,49.5 Z M69,29.1943359 C69.9111328,29.7231446 70.9460449,30.0014648 72,30 L76.5,30 C78.3999022,30.0080567 80.0903321,31.208496 80.723877,33 L72,33 C71.7231446,32.9934083 71.4484864,32.9487304 71.1840821,32.8666991 C69.8994141,32.5034179 69.0087891,31.3352051 69,30 L69,29.1943359 Z M72,36 L81,36 C81,38.4851074 78.9851074,40.5 76.5,40.5 C74.0148926,40.5 72,38.4851074 72,36 Z M49.5,25.5 C49.5,27.9851074 47.4851074,30 45,30 C42.5148926,30 40.5,27.9851074 40.5,25.5 L40.5,24 L49.5,24 L49.5,25.5 Z M43.5,18 L49.5,18 C50.5539551,18.0014648 51.5888672,17.7231446 52.5,17.1943359 L52.5,18 C52.5,19.6567384 51.1567384,21 49.5,21 L40.5,21 C40.5,19.3432616 41.8432616,18 43.5,18 Z M37.5,37.5 C37.5,35.0148926 39.5148926,33 42,33 L43.5,33 L43.5,46.5 C43.5,47.3283692 44.1716308,48 45,48 C45.8283692,48 46.5,47.3283692 46.5,46.5 L46.5,33 L48,33 C50.4851074,33 52.5,35.0148926 52.5,37.5 L52.5,49.5 L37.5,49.5 L37.5,37.5 Z M13.5,40.5 C11.0148926,40.5 9,38.4851074 9,36 L18,36 C18,38.4851074 15.9851074,40.5 13.5,40.5 Z M13.5,30 L18,30 C19.0539551,30.0014648 20.0888672,29.7231446 21,29.1943359 L21,30 C20.9912109,31.3352051 20.1005859,32.5034179 18.8159179,32.8666991 C18.5515136,32.9487304 18.2768554,32.9934083 18,33 L9.276123,33 C9.90966787,31.208496 11.6000977,30.0080567 13.5,30 Z M6,87 L3,87 L3,76.5 L6,76.5 L6,87 Z M7.5,73.5 L3,73.5 L3,52.5 L6,52.5 L6,69 C6,69.8283692 6.67163081,70.5 7.5,70.5 L19.5,70.5 L19.5,73.5 L7.5,73.5 Z M30,85.5 C30,86.3283692 29.3283692,87 28.5,87 L22.5,87 L22.5,84 L28.5,84 C29.3283692,84 30,84.6716308 30,85.5 Z M25.5,69 L25.5,81 L22.5,81 L22.5,69 C22.5,68.1716308 21.8283692,67.5 21,67.5 L9,67.5 L9,64.5 L21,64.5 C23.4851074,64.5 25.5,66.5148926 25.5,69 Z M9,61.5 L9,46.5 C9,44.8432616 10.3432616,43.5 12,43.5 C13.6567384,43.5 15,44.8432616 15,46.5 L15,61.5 L9,61.5 Z M18,52.5 L72,52.5 L72,55.5 L18,55.5 L18,52.5 Z M40.5,73.5 L37.5,73.5 L37.5,72 C37.5,71.1716308 38.1716308,70.5 39,70.5 C39.8283692,70.5 40.5,71.1716308 40.5,72 L40.5,73.5 Z M40.5,67.7563478 C40.3740234,67.7116699 40.2392578,67.6875 40.1066895,67.6530761 C40.0187989,67.630371 39.9345703,67.6018067 39.8430176,67.5842286 C39.2856446,67.4699708 38.7114259,67.4699708 38.1540527,67.5842286 C38.0639647,67.6003417 37.9782714,67.630371 37.8918457,67.6530761 C37.7592772,67.6860353 37.6259766,67.7116699 37.4985352,67.7563478 L37.4985352,58.5 L40.4985352,58.5 L40.5,67.7563478 Z M52.5,73.5 L49.5,73.5 L49.5,72 C49.5,71.1716308 50.1716308,70.5 51,70.5 C51.8283692,70.5 52.5,71.1716308 52.5,72 L52.5,73.5 Z M52.5,67.7563478 C52.3740234,67.7116699 52.2392578,67.6875 52.1066895,67.6530761 C52.0187989,67.630371 51.9345703,67.6018067 51.8430176,67.5842286 C51.2856446,67.4699708 50.7114259,67.4699708 50.1540527,67.5842286 C50.0639647,67.6003417 49.9782714,67.630371 49.8918457,67.6530761 C49.7592772,67.6860353 49.6259766,67.7116699 49.4985352,67.7563478 L49.4985352,58.5 L52.4985352,58.5 L52.5,67.7563478 Z M75,57 L75,46.5 C75,44.8432616 76.3432616,43.5 78,43.5 C79.6567384,43.5 81,44.8432616 81,46.5 L81,61.5 L75,61.5 L75,57 Z M64.5,69 C64.5,66.5148926 66.5148926,64.5 69,64.5 L81,64.5 L81,67.5 L69,67.5 C68.1716308,67.5 67.5,68.1716308 67.5,69 L67.5,81 L64.5,81 L64.5,69 Z M67.5,87 L61.5,87 C60.6716308,87 60,86.3283692 60,85.5 C60,84.6716308 60.6716308,84 61.5,84 L67.5,84 L67.5,87 Z M87,87 L84,87 L84,76.5 L87,76.5 L87,87 Z M87,73.5 L70.5,73.5 L70.5,70.5 L82.5,70.5 C83.3283692,70.5 84,69.8283692 84,69 L84,52.5 L87,52.5 L87,73.5 Z" id="Shape" fill-rule="nonzero"></path>
            <path d="M60,19.5 C60.8283692,19.5 61.5,18.8283692 61.5,18 C61.5,16.3432616 62.8432616,15 64.5,15 L73.5,15 C76.8134766,15 79.5,12.3134766 79.5,9 L79.5,6 C79.5,2.68652344 76.8134766,0 73.5,0 L64.5,0 C61.1865234,0 58.5,2.68652344 58.5,6 L58.5,18 C58.5,18.8283692 59.1716308,19.5 60,19.5 Z M61.5,6 C61.5,4.34326163 62.8432616,3 64.5,3 L73.5,3 C75.1567384,3 76.5,4.34326163 76.5,6 L76.5,9 C76.5,10.6567384 75.1567384,12 73.5,12 L64.5,12 C63.4460449,11.9985352 62.4111328,12.2768554 61.5,12.8056641 L61.5,6 Z" id="Shape" fill-rule="nonzero"></path>
            <polygon id="Path" points="64.5 6 67.5 6 67.5 9 64.5 9"></polygon>
            <polygon id="Path" points="70.5 6 73.5 6 73.5 9 70.5 9"></polygon>
            <path d="M19.5,21 L28.5,21 C30.1567384,21 31.5,22.3432616 31.5,24 C31.5,24.8283692 32.1716308,25.5 33,25.5 C33.8283692,25.5 34.5,24.8283692 34.5,24 L34.5,12 C34.5,8.68652344 31.8134766,6 28.5,6 L19.5,6 C16.1865234,6 13.5,8.68652344 13.5,12 L13.5,15 C13.5,18.3134766 16.1865234,21 19.5,21 Z M16.5,12 C16.5,10.3432616 17.8432616,9 19.5,9 L28.5,9 C30.1567384,9 31.5,10.3432616 31.5,12 L31.5,18.8056641 C30.5888672,18.2768554 29.5539551,17.9985352 28.5,18 L19.5,18 C17.8432616,18 16.5,16.6567384 16.5,15 L16.5,12 Z" id="Shape" fill-rule="nonzero"></path>
            <polygon id="Path" points="25.5 12 28.5 12 28.5 15 25.5 15"></polygon>
            <polygon id="Path" points="19.5 12 22.5 12 22.5 15 19.5 15"></polygon>
        </g>
    </g>
</svg>