<?xml version="1.0" encoding="UTF-8"?>
<svg width="90px" height="90px" viewBox="0 0 90 90" version="1.1" xmlns="http://www.w3.org/2000/svg" xmlns:xlink="http://www.w3.org/1999/xlink">
    <!-- Generator: Sketch 53.2 (72643) - https://sketchapp.com -->
    <title>Ic_DrinkSnacks</title>
    <desc>Created with Sketch.</desc>
    <g id="Ic_DrinkSnacks" stroke="none" stroke-width="1" fill="none" fill-rule="evenodd">
        <g id="fruit" fill="#A3CC39">
            <polygon id="Rectangle" transform="translate(59.888653, 20.888990) rotate(-0.309394) translate(-59.888653, -20.888990) " points="58.3917495 19.3920871 61.3855561 19.3920871 61.3855561 22.3858938 58.3917495 22.3858938"></polygon>
            <path d="M88.3270478,47.7888773 L67.0713306,47.7888773 L68.8675884,20.9438046 C68.8937838,20.5291684 68.7480249,20.1220166 68.4649272,19.8181497 C68.1720998,19.5296258 67.7814137,19.3619751 67.3707069,19.3481289 L64.3769439,19.3645946 L64.3919127,22.3583576 L65.7780249,22.3583576 L65.4202703,27.7127027 L61.0793139,30.121185 C56.5587318,32.6159252 51.1319751,32.8544906 46.4098753,30.766341 L46.4098753,22.4496674 L55.3986486,22.403264 L55.3836798,19.409501 L46.4143659,19.4559044 L46.4143659,12.6855094 L62.1870062,2.65640333 L60.5793555,0.122182952 L44.113659,10.6003534 C43.6818087,10.8752183 43.4204158,11.3517879 43.4206029,11.8637214 L43.4206029,19.4708732 L22.4717464,19.5786486 C21.6450936,19.5833264 20.9787942,20.2574844 20.9834719,21.0841372 C20.983659,21.1148233 20.9847817,21.1453222 20.9868399,21.1758212 L22.652869,46.1587734 C21.7785031,47.7486486 21.0759044,49.4272141 20.5572349,51.165842 C17.9302079,46.4661954 12.9693555,43.5523285 7.58525988,43.5467152 C6.75860707,43.5467152 6.08837838,44.2169439 6.08837838,45.0435967 C6.08613306,47.9484823 6.93991684,50.7897505 8.54326403,53.212079 C7.89492723,53.531289 7.29093555,53.933763 6.74700624,54.4095842 L6.3129106,54.7927859 C1.03153846,59.4316216 -1.17617464,66.6557588 0.6097921,73.4544075 L1.52438669,76.9885447 C2.67230769,81.4267983 5.41721414,85.2855717 9.2333264,87.8259667 C12.5240333,90.0348025 16.7789189,90.2000208 20.2309148,88.252578 L20.1470894,88.1028898 C22.9492516,88.9319751 25.8410395,89.4205198 28.7601455,89.5578586 C29.0595218,89.5728274 29.3588981,89.5728274 29.6687526,89.578815 L29.6687526,89.7015593 L49.4081289,89.7015593 C71.7092308,89.7213929 89.8040956,71.6588981 89.8239293,49.3576091 C89.8239293,49.333659 89.8239293,49.3097089 89.8239293,49.2857588 C89.8239293,48.459106 89.1537006,47.7888773 88.3270478,47.7888773 Z M66.4993347,51.5984407 L66.4993347,50.7826403 L81.4067775,50.7826403 C80.8304782,62.9182328 73.4538462,73.6890437 62.3469854,78.6126611 C59.5755094,79.8378586 56.6427443,80.6600208 53.6381289,81.0540748 C55.8840125,79.0982121 57.8660707,76.8585031 59.5343451,74.3914553 C64.0872973,67.6633472 66.5139293,59.7223909 66.4993347,51.5984407 Z M43.4206029,22.4646362 L43.4206029,29.7020582 C38.5108316,28.3410187 33.2633264,28.9551143 28.8005613,31.4129938 L24.8158628,33.6268815 L24.0793971,22.5634304 L43.4206029,22.4646362 Z M27.1702703,44.7097921 L27.3528898,44.4732848 L25.4413721,42.9988565 L25.0357173,36.9349896 L30.2478586,34.0295426 C34.8082952,31.50842 40.2908108,31.2863202 45.0400416,33.43079 C50.6525988,35.9698753 57.134657,35.7090437 62.5251143,32.7272557 L65.170104,31.258815 L64.499501,41.3238462 C64.1655094,41.0667568 63.8004574,40.8530769 63.4127651,40.6876715 L61.1764241,39.7551143 C59.9822869,39.2538462 58.6244283,39.3255094 57.489605,39.9497089 C56.326341,40.5864449 55.5187734,41.7210811 55.2981705,43.0287942 C53.7111019,52.2245114 48.9201455,60.5617672 41.7738462,66.5627651 C41.2475052,62.0126195 39.0547609,57.8187318 35.6186694,54.7897921 L35.1845738,54.4065904 C32.1629314,51.7165073 27.6243867,51.6527027 24.5282744,54.2569023 L22.6437006,55.8286279 C23.1150312,51.7801247 24.6798337,47.9363202 27.1702703,44.7097921 Z M19.3627235,56.8165696 C14.0777963,56.0883368 9.92264033,51.9331809 9.19440748,46.6482536 C14.4782121,47.3783576 18.6324324,51.532578 19.3627235,56.8165696 Z M10.8931809,85.3366528 C7.69022869,83.2034096 5.38615385,79.964158 4.42216216,76.2386071 L3.50607069,72.7059667 C2.00769231,66.9953638 3.86513514,60.928316 8.30357588,57.0351143 L8.30357588,57.0351143 L8.73767152,56.6519127 C9.26925156,56.1985447 9.88690229,55.8568815 10.5533888,55.6475052 C13.3286071,58.3836175 17.0700624,59.916237 20.9671933,59.9136175 C21.0626195,59.9038877 21.1569231,59.8848025 21.2486071,59.856736 C22.0995842,59.8022869 22.9120166,59.4812058 23.5702703,58.9391476 L26.4367983,56.5441372 C28.4014553,54.8928898 31.2803326,54.9342412 33.1967152,56.6414345 L33.6308108,57.0246362 C36.9901871,59.9835967 38.9123701,64.2461538 38.9058212,68.7227651 C33.0822037,72.8079418 26.2644699,75.2461746 19.1709356,75.7805613 L12.5412474,76.2790229 C11.7587526,76.3379626 11.1543867,76.9911642 11.156632,77.7759044 L11.156632,83.2290437 C11.158316,83.7621206 11.4432848,84.2542204 11.9050728,84.5208524 L12.1131393,84.6435967 C13.3381497,85.3548025 14.603763,85.994158 15.9032432,86.5581081 C14.1416008,86.7536383 12.367422,86.3210395 10.8931809,85.3366528 Z M28.9008524,86.5670894 L28.8993555,86.5685863 C23.7255717,86.3223493 18.6790229,84.8817879 14.1550728,82.3593555 L14.1550728,79.1605198 L19.394158,78.765343 C38.8826195,77.3070062 54.8897089,62.7960499 58.2472141,43.5437214 C58.3134511,43.1341372 58.5647401,42.7780665 58.9282952,42.5782328 C59.2645322,42.3911227 59.668316,42.369605 60.0225156,42.5198545 L62.2588565,43.4539085 C63.0116008,43.7658212 63.5018295,44.5011642 63.4997713,45.3160291 L63.4997713,51.6029314 C63.5130561,59.1296258 61.2654886,66.4867983 57.0482121,72.7209356 C50.7530769,81.964553 40.0651559,87.2221622 28.9008524,86.5670894 Z M49.4081289,86.7077963 L44.6375676,86.7078155 C46.2910603,85.9960291 47.8861746,85.1557173 49.4081289,84.1945322 L49.4081289,84.3337422 C54.2825364,84.3429106 59.1041788,83.3259667 63.5596466,81.3489605 C75.747817,75.9450312 83.8223701,64.1026403 84.4007277,50.7826403 L86.8002287,50.7826403 C86.0164241,70.8608732 69.5015177,86.7280042 49.4081289,86.7077963 Z" id="Shape" fill-rule="nonzero"></path>
            <rect id="Rectangle" x="68.8675884" y="53.7764033" width="2.99376299" height="2.99376299"></rect>
            <rect id="Rectangle" x="64.3769439" y="68.7452183" width="2.99376299" height="2.99376299"></rect>
            <rect id="Rectangle" x="68.8675884" y="62.7576923" width="2.99376299" height="2.99376299"></rect>
        </g>
    </g>
</svg>